Patient4_TMGait_0pt6_01_left_30_GRF.mot
version=1
nRows=78
nColumns=19
inDegrees=no
endheader
time	F1x	F1y	F1z	M1x	M1y	M1z	F2x	F2y	F2z	M2x	M2y	M2z	EC1x	EC1y	EC1z	EC2x	EC2y	EC2z
36.51	12.7083	-0.31998	-6.1353	0.77913	4.1557	-4.2956	-32.4681	716.4346	-58.6021	272.7843	69.7809	694.6558	-0.0592	0.0182	-0.0073	-0.0462	0.0165	0.9585
36.5216	8.4064	0.38526	-4.0445	0.29107	2.5261	-2.3061	-30.1936	714.5364	-55.9358	272.6922	65.8999	692.0213	-0.0592	0.0182	-0.0073	-0.0462	0.0165	0.9585
36.5331	4.7601	1.0409	-2.2955	-0.13848	1.2049	-0.52372	-27.7134	715.3631	-53.452	273.6356	62.1178	690.9575	-0.0592	0.0182	-0.0073	-0.0462	0.0165	0.9585
36.5447	1.9549	1.6129	-0.97589	-0.48685	0.22911	0.96125	-25.1162	719.4516	-51.325	275.802	58.6539	691.9427	-0.0592	0.0182	-0.0073	-0.0462	0.0165	0.9585
36.5563	0.0076194	2.0616	-0.08509	-0.74752	-0.40582	2.0656	-22.4505	726.7452	-49.6581	279.1639	55.6226	695.0199	-0.0592	0.0182	-0.0073	-0.0462	0.0165	0.9585
36.5679	-1.2418	2.4004	0.44296	-0.93158	-0.768	2.8529	-19.7309	736.675	-48.4899	283.4978	53.056	699.8045	-0.0592	0.0182	-0.0073	-0.0462	0.0165	0.9585
36.5794	-1.9391	2.6108	0.70633	-1.0401	-0.93898	3.3145	-16.9673	748.2834	-47.7937	288.4288	50.9217	705.5668	-0.0592	0.0182	-0.0073	-0.0462	0.0165	0.9585
36.591	-2.294	2.695	0.78172	-1.0753	-0.99524	3.5012	-14.1308	760.3582	-47.5342	293.4773	49.166	711.3457	-0.0592	0.0182	-0.0073	-0.0462	0.0165	0.9585
36.6026	-2.4253	2.5913	0.76353	-1.0225	-1.0113	3.3741	-11.2145	771.5566	-47.6242	298.1128	47.6917	716.0631	-0.0592	0.0182	-0.0073	-0.0462	0.0165	0.9585
36.6141	-2.4787	2.2413	0.68706	-0.86405	-1.0192	2.9368	-8.1749	780.5702	-47.9849	301.8216	46.4012	718.6527	-0.0592	0.0182	-0.0073	-0.0462	0.0165	0.9585
36.6257	-2.5082	1.5358	0.61702	-0.56745	-1.062	2.0879	-4.9915	786.3438	-48.5005	304.1942	45.1776	718.283	-0.0592	0.0182	-0.0073	-0.0462	0.0165	0.9585
36.6373	-2.5693	0.3935	0.55359	-0.10726	-1.1283	0.77826	-1.6634	788.157	-49.0708	304.9612	43.9348	714.3992	-0.0592	0.0182	-0.0073	-0.0462	0.0165	0.9585
36.6489	-2.6167	-1.2663	0.52435	0.5415	-1.2126	-1.0897	1.7714	785.726	-49.615	304.0228	42.6228	706.8344	-0.0592	0.0182	-0.0073	-0.0462	0.0165	0.9585
36.6604	-2.6093	-3.4278	0.5035	1.372	-1.2623	-3.4772	5.2541	779.1542	-50.1027	301.4361	41.2492	695.7469	-0.0592	0.0182	-0.0073	-0.0462	0.0165	0.9585
36.672	-2.3991	-5.9578	0.48626	2.3324	-1.2165	-6.2559	8.6858	768.958	-50.5623	297.417	39.8877	681.6622	-0.0592	0.0182	-0.0073	-0.0462	0.0165	0.9585
36.6836	-1.8491	-8.4735	0.43225	3.2802	-0.98092	-9.0102	12.0052	755.9911	-51.0454	292.3145	38.6205	665.3712	-0.0592	0.0182	-0.0073	-0.0462	0.0165	0.9585
36.6951	-0.72356	-10.3093	0.30742	3.9624	-0.43344	-11.0426	15.1439	741.364	-51.6076	286.5773	37.5274	647.8783	-0.0592	0.0182	-0.0073	-0.0462	0.0165	0.9585
36.7067	1.1934	-10.3798	0.06661	3.9706	0.55488	-11.1674	18.1039	726.3172	-52.2802	280.7036	36.6389	630.268	-0.0592	0.0182	-0.0073	-0.0462	0.0165	0.9585
36.7183	4.127	-7.1753	-0.32753	2.7318	2.1024	-7.7707	20.8702	712.05	-53.0676	275.168	35.961	613.6049	-0.0592	0.0182	-0.0073	-0.0462	0.0165	0.9585
36.7299	8.1775	1.2945	-0.8972	-0.50292	4.2651	1.3177	23.472	699.5009	-53.9246	270.3399	35.4445	598.705	-0.0592	0.0182	-0.0073	-0.0462	0.0165	0.9585
36.7414	13.2733	17.3182	-1.6534	-6.598	7.0202	18.5665	25.9046	689.2282	-54.7748	266.4295	35.022	586.0831	-0.0592	0.0182	-0.0073	-0.0462	0.0165	0.9585
36.753	18.942	43.1946	-2.558	-16.4128	10.1477	46.4851	28.1736	681.2222	-55.4784	263.4242	34.5665	575.7574	-0.0592	0.0182	-0.0073	-0.0462	0.0165	0.9585
36.7646	24.221	80.5898	-3.4992	-30.5669	13.1537	86.8872	30.2396	674.8532	-55.8665	261.0644	33.9449	567.2411	-0.0592	0.0182	-0.0073	-0.0462	0.0165	0.9585
36.7761	27.372	129.6071	-4.2439	-49.0887	15.1284	139.9427	32.0788	668.7958	-55.725	258.825	32.9899	559.4515	-0.0592	0.0182	-0.0073	-0.0462	0.0165	0.9585
36.7877	26.1829	187.7887	-4.3999	-71.0394	14.8217	203.0314	33.6431	661.1347	-54.8401	255.9589	31.5462	550.8081	-0.0592	0.0182	-0.0073	-0.0462	0.0165	0.9585
36.7993	19.238	249.8574	-3.4706	-94.4005	11.1745	270.495	34.9138	649.6881	-53.0303	251.6227	29.4851	539.4651	-0.0592	0.0182	-0.0073	-0.0462	0.0165	0.9585
36.8109	7.9252	308.8082	-0.6054	-116.4925	3.8067	334.6498	35.8396	632.4471	-50.2023	245.0448	26.7628	523.7098	-0.0592	0.0182	-0.0073	-0.0462	0.0165	0.9585
36.8224	-4.8171	359.4757	4.5916	-135.3455	-6.5504	389.5618	36.4013	607.9895	-46.4418	235.6786	23.4782	502.3012	-0.0592	0.0182	-0.0073	-0.0462	0.0165	0.9585
36.834	-17.0096	400.6302	10.8931	-150.5254	-17.8403	433.5872	36.5195	575.7525	-41.9716	223.2933	19.8422	474.7468	-0.0592	0.0182	-0.0073	-0.0462	0.0165	0.9585
36.8456	-27.285	433.5885	17.7034	-162.5578	-28.8781	467.9539	36.1521	535.8751	-37.161	207.9302	16.1615	441.1239	-0.0592	0.0182	-0.0073	-0.0462	0.0165	0.9585
36.8571	-34.9476	460.6464	24.1176	-172.3603	-38.4472	495.1834	35.2193	489.1208	-32.3215	189.8718	12.6969	402.052	-0.0592	0.0182	-0.0073	-0.0462	0.0165	0.9585
36.8687	-39.8424	484.0137	29.6268	-180.8029	-45.9522	517.6875	33.6009	436.7422	-27.6296	169.6027	9.6221	358.5377	-0.0592	0.0182	-0.0073	-0.0462	0.0165	0.9585
36.8803	-42.1944	505.2887	34.0152	-188.51	-51.2442	537.2515	31.1264	380.455	-23.1728	147.7888	7.0613	312.004	-0.0592	0.0182	-0.0073	-0.0462	0.0165	0.9585
36.8919	-42.1987	525.6343	37.1423	-195.9286	-54.2935	555.1414	27.7037	322.3456	-18.9807	125.2455	5.0655	264.1636	-0.0592	0.0182	-0.0073	-0.0462	0.0165	0.9585
36.9034	-40.3325	546.0187	39.4183	-203.3895	-55.7045	572.5058	23.3284	264.7707	-15.1353	102.8886	3.6951	216.9546	-0.0592	0.0182	-0.0073	-0.0462	0.0165	0.9585
36.915	-37.0002	567.1957	40.9899	-211.163	-55.824	590.1886	18.2269	210.1237	-11.7097	81.6515	2.9199	172.2977	-0.0592	0.0182	-0.0073	-0.0462	0.0165	0.9585
36.9266	-32.7199	589.793	42.3738	-219.4417	-55.3817	609.0234	12.8217	160.5597	-8.8048	62.3725	2.6531	131.8974	-0.0592	0.0182	-0.0073	-0.0462	0.0165	0.9585
36.9381	-27.9627	613.9255	43.7463	-228.2583	-54.7571	629.1485	7.6825	117.6507	-6.4526	45.6695	2.6978	96.9459	-0.0592	0.0182	-0.0073	-0.0462	0.0165	0.9585
36.9497	-23.2606	639.2459	45.4869	-237.4568	-54.5287	650.3465	3.2997	82.158	-4.6289	31.8477	2.8494	68.0172	-0.0592	0.0182	-0.0073	-0.0462	0.0165	0.9585
36.9613	-18.9403	665.0808	47.6517	-246.7945	-54.8813	671.9524	-0.015883	54.0588	-3.2394	20.9109	2.9266	45.0587	-0.0592	0.0182	-0.0073	-0.0462	0.0165	0.9585
36.9729	-15.2556	690.7559	50.169	-256.0357	-55.8254	693.3373	-2.207	32.7968	-2.1758	12.6458	2.8309	27.6339	-0.0592	0.0182	-0.0073	-0.0462	0.0165	0.9585
36.9844	-12.1243	715.5632	52.8364	-264.9463	-57.1282	713.7763	-3.3299	17.4997	-1.3728	6.7134	2.5466	15.0452	-0.0592	0.0182	-0.0073	-0.0462	0.0165	0.9585
36.996	-9.4833	738.7069	55.2914	-273.2574	-58.3933	732.4742	-3.5743	7.196	-0.77001	2.7299	2.1011	6.5329	-0.0592	0.0182	-0.0073	-0.0462	0.0165	0.9585
37.0076	-7.2276	759.1571	57.4094	-280.6088	-59.4418	748.3942	-3.1959	0.89723	-0.3544	0.30562	1.5889	1.2867	-0.0592	0.0182	-0.0073	-0.0462	0.0165	0.9585
37.0191	-5.3018	775.9298	58.9929	-286.6419	-60.0485	760.6172	-2.5483	-2.3564	-0.09264	-0.9379	1.1088	-1.4592	-0.0592	0.0182	-0.0073	-0.0462	0.0165	0.9585
37.0307	-3.6182	788.2044	60.1339	-291.0493	-60.2582	768.3639	-1.8249	-3.5323	0.037875	-1.3745	0.71981	-2.5022	-0.0592	0.0182	-0.0073	-0.0462	0.0165	0.9585
37.0423	-2.1329	795.6317	60.7947	-293.6907	-60.0071	771.349	-1.1819	-3.4073	0.081391	-1.3103	0.43574	-2.4546	-0.0592	0.0182	-0.0073	-0.0462	0.0165	0.9585
37.0539	-0.73835	798.3012	61.0905	-294.5845	-59.3757	769.7192	-0.65971	-2.6258	0.060423	-0.99091	0.25624	-1.8707	-0.0592	0.0182	-0.0073	-0.0462	0.0165	0.9585
37.0654	0.54562	796.7826	61.0433	-293.9232	-58.3922	764.0935	-0.29471	-1.5807	0.0076625	-0.57373	0.16523	-1.0436	-0.0592	0.0182	-0.0073	-0.0462	0.0165	0.9585
37.077	1.7688	792.0036	60.68	-292.0334	-57.0837	755.4175	-0.046295	-0.55235	-0.052945	-0.16525	0.13294	-0.21874	-0.0592	0.0182	-0.0073	-0.0462	0.0165	0.9585
37.0886	2.9154	785.1159	60.0406	-289.3258	-55.5036	744.8629	0.086136	0.34654	-0.10651	0.18586	0.14192	0.53087	-0.0592	0.0182	-0.0073	-0.0462	0.0165	0.9585
37.1001	3.9923	777.2883	59.1316	-286.2231	-53.6726	733.5392	0.16444	1.0581	-0.14236	0.46053	0.16197	1.1389	-0.0592	0.0182	-0.0073	-0.0462	0.0165	0.9585
37.1117	4.9979	769.5266	58.0765	-283.0864	-51.716	722.4194	0.18266	1.5918	-0.16838	0.66228	0.19389	1.6288	-0.0592	0.0182	-0.0073	-0.0462	0.0165	0.9585
37.1233	5.9787	762.5483	56.9257	-280.1807	-49.6774	712.1391	0.1916	1.9636	-0.17933	0.80114	0.21533	1.989	-0.0592	0.0182	-0.0073	-0.0462	0.0165	0.9585
37.1349	6.9352	756.7673	55.8284	-277.6579	-47.697	703.0702	0.1797	2.2199	-0.18756	0.89455	0.23617	2.2753	-0.0592	0.0182	-0.0073	-0.0462	0.0165	0.9585
37.1464	7.9692	752.3017	54.82	-275.5728	-45.7799	695.2705	0.17977	2.377	-0.19027	0.95334	0.24294	2.4749	-0.0592	0.0182	-0.0073	-0.0462	0.0165	0.9585
37.158	9.1379	749.0178	53.9921	-273.884	-43.9929	688.5662	0.16246	2.4753	-0.19052	0.98878	0.24538	2.6277	-0.0592	0.0182	-0.0073	-0.0462	0.0165	0.9585
37.1696	10.548	746.5765	53.3568	-272.4784	-42.3169	682.5583	0.15031	2.491	-0.18986	0.99454	0.24723	2.6862	-0.0592	0.0182	-0.0073	-0.0462	0.0165	0.9585
37.1811	12.278	744.5497	52.9376	-271.2037	-40.7449	676.8082	0.10378	2.4171	-0.19923	0.96307	0.27279	2.6619	-0.0592	0.0182	-0.0073	-0.0462	0.0165	0.9585
37.1927	14.3823	742.5044	52.7267	-269.9062	-39.2466	670.8679	0.04541	2.1848	-0.22781	0.86944	0.32888	2.4457	-0.0592	0.0182	-0.0073	-0.0462	0.0165	0.9585
37.2043	16.8934	740.1375	52.6873	-268.4744	-37.7712	664.4644	-0.047718	1.731	-0.28029	0.68504	0.42377	1.9734	-0.0592	0.0182	-0.0073	-0.0462	0.0165	0.9585
37.2159	19.8213	737.3393	52.8073	-266.8624	-36.2997	657.5261	-0.13281	0.94068	-0.35557	0.36605	0.53935	1.1132	-0.0592	0.0182	-0.0073	-0.0462	0.0165	0.9585
37.2274	23.1187	734.2535	53.0565	-265.1087	-34.8122	650.2383	-0.21719	-0.25858	-0.44872	-0.12396	0.66298	-0.20147	-0.0592	0.0182	-0.0073	-0.0462	0.0165	0.9585
37.239	26.7245	731.2445	53.4745	-263.3247	-33.3641	643.0182	-0.24565	-1.9419	-0.54406	-0.81575	0.75672	-2.0664	-0.0592	0.0182	-0.0073	-0.0462	0.0165	0.9585
37.2506	30.5341	728.8154	54.0791	-261.6673	-32.0032	636.4147	-0.2099	-4.0817	-0.61323	-1.7016	0.78145	-4.4318	-0.0592	0.0182	-0.0073	-0.0462	0.0165	0.9585
37.2621	34.4082	727.4296	54.9436	-260.2788	-30.8431	630.9468	-0.041648	-6.548	-0.62059	-2.723	0.67494	-7.1602	-0.0592	0.0182	-0.0073	-0.0462	0.0165	0.9585
37.2737	38.2094	727.3691	56.084	-259.2448	-29.9517	626.9569	0.29423	-8.9677	-0.50745	-3.7251	0.35907	-9.8248	-0.0592	0.0182	-0.0073	-0.0462	0.0165	0.9585
37.2853	41.7425	728.5667	57.5249	-258.5362	-29.4221	624.4559	0.88083	-10.7009	-0.21306	-4.4344	-0.25631	-11.7398	-0.0592	0.0182	-0.0073	-0.0462	0.0165	0.9585
37.2969	44.8678	730.6314	59.2168	-258.0205	-29.271	623.1286	1.747	-10.6925	0.33742	-4.407	-1.2563	-11.7449	-0.0592	0.0182	-0.0073	-0.0462	0.0165	0.9585
37.3084	47.4647	732.8986	61.0763	-257.4794	-29.4766	622.412	2.9308	-7.4876	1.1962	-3.0206	-2.6967	-8.2722	-0.0592	0.0182	-0.0073	-0.0462	0.0165	0.9585
37.32	49.4944	734.5027	62.9678	-256.6333	-29.9495	621.5225	4.3604	0.84197	2.3919	0.53643	-4.5692	0.78217	-0.0592	0.0182	-0.0073	-0.0462	0.0165	0.9585
37.3316	50.9527	734.4691	64.7148	-255.1769	-30.5507	619.6113	5.8914	16.5022	3.8947	7.1941	-6.7616	17.7977	-0.0592	0.0182	-0.0073	-0.0462	0.0165	0.9585
37.3431	51.9128	731.7775	66.1177	-252.803	-31.1053	615.7822	7.1717	41.7053	5.5694	17.8741	-8.9651	45.1962	-0.0592	0.0182	-0.0073	-0.0462	0.0165	0.9585
37.3547	52.4331	725.4121	66.9402	-249.2158	-31.4063	609.1498	7.6704	78.056	7.127	33.2396	-10.6209	84.7206	-0.0592	0.0182	-0.0073	-0.0462	0.0165	0.9585
37.3663	52.6141	714.351	66.9476	-244.1247	-31.2454	598.8127	6.4541	125.7712	8.1372	53.3525	-10.8679	136.6319	-0.0592	0.0182	-0.0073	-0.0462	0.0165	0.9585
37.3779	52.4934	697.5741	65.8911	-237.2428	-30.414	583.88	2.5279	182.4926	8.1349	77.1868	-8.7759	198.3696	-0.0592	0.0182	-0.0073	-0.0462	0.0165	0.9585
37.3894	52.1059	674.1364	63.595	-228.3054	-28.7698	563.513	-4.3583	242.7008	6.385	102.3692	-3.5004	263.942	-0.0592	0.0182	-0.0073	-0.0462	0.0165	0.9585
37.401	51.4174	643.4007	60.003	-217.1392	-26.2818	537.1557	-13.0636	299.2556	2.2505	125.8815	5.067	325.4696	-0.0592	0.0182	-0.0073	-0.0462	0.0165	0.9585
